<svg width="43" height="43" viewBox="0 0 43 43" fill="none" xmlns="http://www.w3.org/2000/svg">
<rect width="43" height="43" rx="6" fill="#393939"/>
<path d="M34 19.8607C32.7967 22.6573 31.6397 24.5463 30.5289 25.5278C29.3785 26.5093 28.195 27 26.9785 27C25.0744 26.8924 23.3686 25.9042 21.8612 24.0354L18.8264 20.2238C18.324 19.565 17.6694 19.249 16.8628 19.2759C16.0298 19.2759 15.3884 19.686 14.9388 20.5061C14.476 21.3531 13.9008 22.6707 13.2132 24.4589L10 22.5833C10.4099 21.2523 10.8727 20.1095 11.3884 19.1549C11.9041 18.2003 12.4595 17.4205 13.0545 16.8155C14.2843 15.6054 15.5603 15.0004 16.8826 15.0004C18.0331 14.987 19.1107 15.3164 20.1157 15.9886C21.1339 16.6474 22.0926 17.6692 22.9917 19.054C24.6182 21.5682 25.9537 22.8253 26.9983 22.8253C27.8579 22.8253 28.5719 22.3279 29.1405 21.333C29.4182 20.8221 29.7025 20.2574 29.9934 19.6389C30.2843 19.0204 30.562 18.3751 30.8264 17.7028L34 19.8607Z" fill="white"/>
</svg>
